/* XPM */
static char *diamonds_xpm[] = {
"16 16 8 1",
"  c black",
". c #FF6600",
"X c #FF6633",
"o c yellow",
"O c #340099",
"+ c #0000DD",
"@ c #0099FF",
"# c None",
"####### ########",
"###.##   #######",
"###X# @ + ######",
"###o @@ ++ #####",
"..ooo.. +++ ####",
"## o@@@ ++++ ###",
"# @X@@@ +++++ ##",
"   .           #",
"# +++++ OOOOO ##",
"## ++++ OOOO ###",
"### +++ OOO ####",
"#### ++ OO #####",
"##### + O ######",
"######   #######",
"####### ########",
"################"
};
