/* XPM */
static char *__[] = {
/* columns rows colors chars-per-pixel */
"32 32 14 1",
"  c black",
". c #FF6600",
"X c #FF6633",
"o c #E9C600",
"O c yellow",
"+ c #FFFF02",
"@ c #330099",
"# c #0000DD",
"$ c #FF6FB7",
"% c #0099FF",
"& c #808080",
"* c #FEE181",
"= c #C0C0C0",
"- c None",
/* pixels */
"----------------------------$---",
"---------------------------$$$--",
"--------------------------&$$$$-",
"-------------------------==&$$$$",
"------------------------=&==&$$$",
"-----------------------&==&==&$-",
"----------------------++&==&==--",
"------------ --------++++&==&---",
"-----------   ------++++oo&=----",
"------X--- % # ----++++oooo-----",
"--------- %% ## --++++oooo------",
"------X- %%% ### ++++oooo-------",
"------O %%%% ###++++oooo--------",
"--.-XOOO.%.% ##++++oooo---------",
"----- O%%%%% #++++oooo----------",
"---- %X%%%%% ++++oooo-----------",
"--- %%%%%%%%++++oooo# ----------",
"-- %%%X%%%%++++oooo### ---------",
"- %%%%%%%%++++oooo##### --------",
"         ++++oooo        -------",
"- ######++++oooo@@@@@@@ --------",
"-- ####*+++oooo@@@@@@@ ---------",
"--- ##***+oooo@@@@@@@ ----------",
"---- #****ooo@@@@@@@ -----------",
"-----******o @@@@@@ ------------",
"-----*****## @@@@@ -------------",
"----****#### @@@@ --------------",
"----**-- ### @@@ ---------------",
"--- ----- ## @@ ----------------",
"---------- # @ -----------------",
"-----------   ------------------",
"------------ -------------------"
};
