/* XPM */
static char *__[] = {
/* columns rows colors chars-per-pixel */
"16 16 15 1",
"  c black",
". c #020202",
"X c #FF6701",
"o c #FF6802",
"O c #E9C600",
"+ c #FFFF01",
"@ c #FFFF02",
"# c #350299",
"$ c #0202DD",
"% c #FF6FB7",
"& c #0299FF",
"* c #808080",
"= c #FEE181",
"- c #C0C0C0",
"; c None",
/* pixels */
";;;;;;;;;;;;;;%;",
";;;;;;;;;;;;;*%%",
";;;;;;;;;;;;--*%",
";;;;;;;;;;;@*--;",
";;;;;  ;;;@@O*;;",
";;X; &$ ;@@OO;;;",
";;@.&&$$@@OO;;;;",
"X@@+X&$@@OO;;;;;",
"; +&&&@@OO.;;;;;",
" &o&&@@OO$$ ;;;;",
" $$$@@OO### ;;;;",
"; $==OO###.;;;;;",
";;.===###.;;;;;;",
";; =$$##.;;;;;;;",
";;;;.$#.;;;;;;;;",
";;;;;  ;;;;;;;;;"
};
